<svg version="1.1" id="Layer_1" xmlns="http://www.w3.org/2000/svg" xmlns:xlink="http://www.w3.org/1999/xlink" x="0px" y="0px"
	 width="100%" viewBox="0 0 256 256" enable-background="new 0 0 256 256" xml:space="preserve">
<path fill="#000000" opacity="1.000000" stroke="none" 
	d="
M151.000000,257.000000 
	C100.666672,257.000000 50.833340,257.000000 1.000007,257.000000 
	C1.000005,171.666672 1.000005,86.333351 1.000002,1.000018 
	C86.333321,1.000012 171.666641,1.000012 257.000000,1.000006 
	C257.000000,86.333313 257.000000,171.666626 257.000000,256.999969 
	C221.833328,257.000000 186.666672,257.000000 151.000000,257.000000 
M68.105667,164.571396 
	C68.127739,167.808884 69.388695,170.743790 70.357170,173.748276 
	C71.439987,177.107468 72.020180,180.512466 71.569969,184.058502 
	C70.801643,190.110123 68.557358,192.286667 62.526142,192.340836 
	C53.026909,192.426163 43.526390,192.357742 34.026489,192.382446 
	C27.796764,192.398636 27.396156,192.774734 27.382309,198.824463 
	C27.355602,210.491028 27.847250,222.182205 27.245972,233.817810 
	C26.575310,246.796097 33.031727,251.029022 44.093174,250.899765 
	C78.588318,250.496658 113.091217,250.760361 147.591110,250.757797 
	C163.924377,250.756577 180.257935,250.793228 196.590759,250.701889 
	C204.048126,250.660172 209.393417,246.049423 209.528137,238.981720 
	C209.794876,224.986908 209.607773,210.983612 209.631439,196.983871 
	C209.636673,193.880402 208.151672,192.377289 205.053986,192.386093 
	C200.554153,192.398880 196.054092,192.351990 191.554352,192.374710 
	C183.204330,192.416885 181.662415,194.484482 184.188919,202.283890 
	C185.714935,206.994736 186.156754,211.786850 184.588196,216.500763 
	C180.896378,227.595520 168.172058,233.225403 156.833359,228.946014 
	C145.754684,224.764740 141.039062,213.092972 145.907822,201.903961 
	C149.212860,194.308578 147.953064,192.378006 139.628326,192.369507 
	C125.295052,192.354874 110.961739,192.374939 96.628479,192.358582 
	C87.621147,192.348312 83.721924,187.660995 85.470825,178.606140 
	C86.193016,174.867035 87.735916,171.290710 88.531128,167.560532 
	C90.011711,160.615417 86.508133,154.526764 80.714149,153.502014 
	C74.125084,152.336639 69.455833,156.138870 68.105667,164.571396 
M172.774170,198.292282 
	C172.426147,196.836609 171.866318,195.395386 171.765930,193.922836 
	C171.270996,186.662476 173.124954,179.690613 183.215103,180.579163 
	C187.015839,180.913864 190.884430,180.781281 194.703094,180.549088 
	C204.139725,179.975296 209.310516,175.734970 209.501846,167.599594 
	C209.826874,153.778976 209.587372,139.945541 209.636063,126.117676 
	C209.648178,122.674385 207.902618,121.358742 204.651016,121.418175 
	C201.153534,121.482109 197.651337,121.515633 194.155731,121.410789 
	C183.507431,121.091385 181.413467,124.782539 184.616318,133.400330 
	C187.983536,142.460373 183.985840,151.606400 176.183167,156.374344 
	C168.130707,161.294876 157.281143,160.337158 150.125214,154.074158 
	C143.642319,148.400208 142.059464,139.576996 145.953125,130.817978 
	C149.104584,123.728569 147.693695,121.479294 139.812607,121.442314 
	C125.151711,121.373543 110.490234,121.435051 95.829048,121.414284 
	C87.796280,121.402908 83.991325,117.194633 85.081154,109.122841 
	C85.522240,105.856064 86.614075,102.649307 87.669373,99.502281 
	C88.480713,97.082733 88.935417,94.688049 88.714859,92.155113 
	C88.076454,84.823540 81.491081,80.751053 74.644150,83.458893 
	C69.369865,85.544792 67.017403,91.056969 68.718658,97.694565 
	C69.707283,101.551765 71.315094,105.225334 71.718987,109.262962 
	C72.594208,118.012413 69.737854,121.401070 61.173191,121.417488 
	C51.676765,121.435699 42.180031,121.467712 32.683960,121.408630 
	C29.296608,121.387566 27.333044,122.477272 27.356091,126.276520 
	C27.440983,140.270752 27.268385,154.267563 27.464094,168.259598 
	C27.547728,174.238861 31.045181,178.110733 36.775745,179.765106 
	C42.184319,181.326553 47.709270,180.530029 53.178246,180.582458 
	C61.497585,180.662201 62.629387,178.759766 59.230675,171.108704 
	C55.399830,162.484848 57.148262,153.809448 63.892933,147.975510 
	C71.129471,141.716125 81.840919,140.968124 89.950150,146.155899 
	C97.832054,151.198242 100.850739,160.081802 97.963448,169.737839 
	C95.153534,179.135101 96.243034,180.624084 106.004128,180.633347 
	C120.332130,180.646957 134.660278,180.605698 148.988098,180.659912 
	C155.080429,180.682968 157.822357,183.247299 158.321320,189.282532 
	C158.526764,191.767639 158.438263,194.238327 157.634506,196.689453 
	C156.495636,200.162476 155.339584,203.665665 154.659271,207.244980 
	C153.609070,212.770294 157.360168,218.302246 162.557327,219.449814 
	C168.360062,220.731079 173.458878,217.497314 175.154877,211.632095 
	C176.476471,207.061646 174.379837,203.158493 172.774170,198.292282 
M154.396973,46.079174 
	C151.874252,43.812401 148.833374,43.360481 145.574341,43.363121 
	C110.424477,43.391563 75.274567,43.362171 40.124702,43.391029 
	C31.961372,43.397732 27.414030,47.917576 27.389748,55.980476 
	C27.348606,69.640503 27.356783,83.300789 27.386276,96.960876 
	C27.404497,105.399376 30.931623,109.177589 39.424332,109.548203 
	C44.745403,109.780411 50.086399,109.723755 55.413715,109.597145 
	C60.512619,109.475983 61.851540,107.299355 60.049725,102.433136 
	C59.529972,101.029419 58.845772,99.685982 58.338833,98.278229 
	C55.204918,89.575394 58.216743,80.642776 65.962952,75.576775 
	C73.795280,70.454453 83.815414,70.715729 91.264595,76.236519 
	C98.411118,81.533012 100.825996,89.998108 97.885712,99.446129 
	C95.262352,107.875755 96.505943,109.621475 105.281059,109.640015 
	C118.607971,109.668167 131.934998,109.634987 145.261963,109.654991 
	C156.555878,109.671944 160.813965,115.426796 157.670074,126.441566 
	C156.757660,129.638229 155.474670,132.744247 154.765030,135.980301 
	C153.488113,141.803253 157.193481,147.571045 162.587311,148.598343 
	C168.965881,149.813187 173.747360,146.641403 175.294830,140.354431 
	C176.064301,137.228256 175.084412,134.427216 174.147003,131.587891 
	C172.948547,127.957863 171.510284,124.404831 171.605484,120.465027 
	C171.782318,113.145615 175.101913,109.717743 182.308167,109.675064 
	C189.304474,109.633621 196.303345,109.587669 203.297211,109.731644 
	C207.671387,109.821686 210.370178,108.281837 210.602341,103.592155 
	C210.838821,98.814911 209.151428,96.953995 203.987106,96.362587 
	C180.356918,93.656532 162.701965,77.759018 157.597885,54.633648 
	C156.991226,51.884975 156.576035,49.048519 154.396973,46.079174 
M226.479279,17.500885 
	C226.122635,13.432477 222.948074,12.053719 219.830566,10.886830 
	C196.045380,1.983968 170.827957,15.432670 167.620880,41.741901 
	C165.730560,57.249142 173.588867,72.348732 187.411606,79.609879 
	C201.716400,87.124245 218.850311,85.087570 230.690384,74.465416 
	C242.400742,63.959629 246.611069,46.900829 240.976181,32.561417 
	C240.271027,30.766987 239.887970,28.326750 237.454132,28.201128 
	C235.325836,28.091278 234.654984,30.302885 233.650543,31.772272 
	C227.264404,41.114525 220.978470,50.526054 214.520004,59.817780 
	C210.462387,65.655418 202.805862,66.184074 198.409302,60.630466 
	C193.456100,54.373703 189.050110,47.681602 184.456818,41.143227 
	C182.900391,38.927696 183.471939,37.253349 186.200516,36.864704 
	C191.007523,36.180035 195.542603,36.342983 198.328812,41.398918 
	C199.609390,43.722744 201.289810,45.824345 202.758301,48.046944 
	C204.926498,51.328594 207.267960,51.429802 209.249908,48.066681 
	C215.073380,38.184937 221.282196,28.520391 226.479279,17.500885 
z"/>
</svg>